<?xml version="1.0" encoding="UTF-8"?>
<!DOCTYPE svg PUBLIC "-//W3C//DTD SVG 1.1//EN" "http://www.w3.org/Graphics/SVG/1.1/DTD/svg11.dtd">
<svg version="1.2" width="280mm" height="210mm" viewBox="0 0 28000 21000" preserveAspectRatio="xMidYMid" fill-rule="evenodd" clip-path="url(#presentation_clip_path)" stroke-width="28.222" stroke-linejoin="round" xmlns="http://www.w3.org/2000/svg" xmlns:ooo="http://xml.openoffice.org/svg/export" xmlns:xlink="http://www.w3.org/1999/xlink" xml:space="preserve">
 <defs class="ClipPathGroup">
  <clipPath id="presentation_clip_path" clipPathUnits="userSpaceOnUse">
   <rect x="0" y="0" width="28000" height="21000"/>
  </clipPath>
 </defs>
 <defs class="TextShapeIndex">
  <g ooo:slide="id1" ooo:id-list="id3 id4 id5 id6 id7 id8 id9 id10 id11 id12 id13 id14 id15 id16 id17 id18 id19 id20 id21"/>
 </defs>
 <defs class="EmbeddedBulletChars">
  <g id="bullet-char-template(57356)" transform="scale(0.00048828125,-0.00048828125)">
   <path d="M 580,1141 L 1163,571 580,0 -4,571 580,1141 Z"/>
  </g>
  <g id="bullet-char-template(57354)" transform="scale(0.00048828125,-0.00048828125)">
   <path d="M 8,1128 L 1137,1128 1137,0 8,0 8,1128 Z"/>
  </g>
  <g id="bullet-char-template(10146)" transform="scale(0.00048828125,-0.00048828125)">
   <path d="M 174,0 L 602,739 174,1481 1456,739 174,0 Z M 1358,739 L 309,1346 659,739 1358,739 Z"/>
  </g>
  <g id="bullet-char-template(10132)" transform="scale(0.00048828125,-0.00048828125)">
   <path d="M 2015,739 L 1276,0 717,0 1260,543 174,543 174,936 1260,936 717,1481 1274,1481 2015,739 Z"/>
  </g>
  <g id="bullet-char-template(10007)" transform="scale(0.00048828125,-0.00048828125)">
   <path d="M 0,-2 C -7,14 -16,27 -25,37 L 356,567 C 262,823 215,952 215,954 215,979 228,992 255,992 264,992 276,990 289,987 310,991 331,999 354,1012 L 381,999 492,748 772,1049 836,1024 860,1049 C 881,1039 901,1025 922,1006 886,937 835,863 770,784 769,783 710,716 594,584 L 774,223 C 774,196 753,168 711,139 L 727,119 C 717,90 699,76 672,76 641,76 570,178 457,381 L 164,-76 C 142,-110 111,-127 72,-127 30,-127 9,-110 8,-76 1,-67 -2,-52 -2,-32 -2,-23 -1,-13 0,-2 Z"/>
  </g>
  <g id="bullet-char-template(10004)" transform="scale(0.00048828125,-0.00048828125)">
   <path d="M 285,-33 C 182,-33 111,30 74,156 52,228 41,333 41,471 41,549 55,616 82,672 116,743 169,778 240,778 293,778 328,747 346,684 L 369,508 C 377,444 397,411 428,410 L 1163,1116 C 1174,1127 1196,1133 1229,1133 1271,1133 1292,1118 1292,1087 L 1292,965 C 1292,929 1282,901 1262,881 L 442,47 C 390,-6 338,-33 285,-33 Z"/>
  </g>
  <g id="bullet-char-template(9679)" transform="scale(0.00048828125,-0.00048828125)">
   <path d="M 813,0 C 632,0 489,54 383,161 276,268 223,411 223,592 223,773 276,916 383,1023 489,1130 632,1184 813,1184 992,1184 1136,1130 1245,1023 1353,916 1407,772 1407,592 1407,412 1353,268 1245,161 1136,54 992,0 813,0 Z"/>
  </g>
  <g id="bullet-char-template(8226)" transform="scale(0.00048828125,-0.00048828125)">
   <path d="M 346,457 C 273,457 209,483 155,535 101,586 74,649 74,723 74,796 101,859 155,911 209,963 273,989 346,989 419,989 480,963 531,910 582,859 608,796 608,723 608,648 583,586 532,535 482,483 420,457 346,457 Z"/>
  </g>
  <g id="bullet-char-template(8211)" transform="scale(0.00048828125,-0.00048828125)">
   <path d="M -4,459 L 1135,459 1135,606 -4,606 -4,459 Z"/>
  </g>
 </defs>
 <defs class="TextEmbeddedBitmaps"/>
 <g>
  <g id="id2" class="Master_Slide">
   <g id="bg-id2" class="Background"/>
   <g id="bo-id2" class="BackgroundObjects"/>
  </g>
 </g>
 <g class="SlideGroup">
  <g>
   <g id="id1" class="Slide" clip-path="url(#presentation_clip_path)">
    <g class="Page">
     <g class="Group">
      <g class="com.sun.star.drawing.CustomShape">
       <g id="id3">
        <path fill="rgb(255,255,255)" stroke="none" d="M 20900,5855 C 20900,5477 22050,5100 23200,5100 24350,5100 25501,5477 25501,5855 L 25501,9145 C 25501,9523 24350,9901 23200,9901 22050,9901 20900,9523 20900,9145 L 20900,5855 Z M 20900,5100 L 20900,5100 Z M 25501,9901 L 25501,9901 Z"/>
        <path fill="none" stroke="rgb(0,0,0)" d="M 20900,5855 C 20900,5477 22050,5100 23200,5100 24350,5100 25501,5477 25501,5855 L 25501,9145 C 25501,9523 24350,9901 23200,9901 22050,9901 20900,9523 20900,9145 L 20900,5855 Z"/>
        <path fill="rgb(255,255,255)" stroke="none" d="M 20900,5855 C 20900,6233 22050,6611 23200,6611 24350,6611 25501,6233 25501,5855 L 20900,5855 Z M 20900,5100 L 20900,5100 Z M 25501,9901 L 25501,9901 Z"/>
        <path fill="none" stroke="rgb(0,0,0)" d="M 20900,5855 C 20900,6233 22050,6611 23200,6611 24350,6611 25501,6233 25501,5855"/>
        <path fill="none" stroke="rgb(0,0,0)" d="M 20900,5100 L 20900,5100 Z"/>
        <path fill="none" stroke="rgb(0,0,0)" d="M 25501,9901 L 25501,9901 Z"/>
       </g>
      </g>
      <g class="com.sun.star.drawing.TextShape">
       <g id="id4">
        <text class="TextShape"><tspan class="TextParagraph" font-family="Arial, sans-serif" font-size="635px" font-weight="400"><tspan class="TextPosition" x="21815" y="8000"><tspan fill="rgb(0,0,0)" stroke="none">Text Index</tspan></tspan></tspan><tspan class="TextParagraph" font-family="Arial, sans-serif" font-size="635px" font-weight="400"><tspan class="TextPosition" x="21573" y="8711"><tspan fill="rgb(0,0,0)" stroke="none">(Sphinx RT)</tspan></tspan></tspan></text>
       </g>
      </g>
     </g>
     <g class="com.sun.star.drawing.CustomShape">
      <g id="id5">
       <path fill="none" stroke="rgb(0,0,0)" d="M 12633,6500 C 12366,6500 12100,6766 12100,7033 L 12100,9167 C 12100,9434 12366,9701 12633,9701 L 17467,9701 C 17734,9701 18001,9434 18001,9167 L 18001,7033 C 18001,6766 17734,6500 17467,6500 L 12633,6500 Z"/>
       <text class="TextShape"><tspan class="TextParagraph" font-family="Arial, sans-serif" font-size="635px" font-weight="400"><tspan class="TextPosition" x="12690" y="8321"><tspan fill="rgb(0,0,0)" stroke="none">Storage frontend</tspan></tspan></tspan></text>
      </g>
     </g>
     <g class="com.sun.star.drawing.LineShape">
      <g id="id6">
       <path fill="none" stroke="rgb(0,0,0)" d="M 18901,8248 L 20109,8143"/>
       <path fill="rgb(0,0,0)" stroke="none" d="M 18869,7964 L 18321,8268 18305,8282 18300,8299 18308,8317 18324,8328 18918,8532 18926,8534 18931,8534 18942,8530 18953,8522 18960,8512 18961,8500 18917,7989 18914,7977 18905,7966 18893,7962 18881,7961 18876,7961 18869,7964 Z"/>
       <path fill="rgb(0,0,0)" stroke="none" d="M 20600,8099 L 20034,7810 20093,8483 20600,8099 Z"/>
      </g>
     </g>
     <g class="com.sun.star.drawing.LineShape">
      <g id="id7">
       <path fill="none" stroke="rgb(0,0,0)" d="M 18652,6910 L 20312,4601"/>
       <path fill="rgb(0,0,0)" stroke="none" d="M 18416,6750 L 18289,7363 18289,7384 18299,7399 18318,7405 18337,7400 18879,7082 18886,7078 18888,7074 18893,7063 18894,7049 18891,7038 18882,7029 18466,6730 18455,6724 18441,6724 18430,6730 18421,6739 18419,6742 18416,6750 Z"/>
       <path fill="rgb(0,0,0)" stroke="none" d="M 20599,4199 L 20012,4440 20560,4834 20599,4199 Z"/>
      </g>
     </g>
     <g class="Group">
      <g class="com.sun.star.drawing.CustomShape">
       <g id="id8">
        <path fill="rgb(255,255,255)" stroke="none" d="M 20900,1755 C 20900,1377 22050,1000 23200,1000 24350,1000 25501,1377 25501,1755 L 25501,5045 C 25501,5423 24350,5801 23200,5801 22050,5801 20900,5423 20900,5045 L 20900,1755 Z M 20900,1000 L 20900,1000 Z M 25501,5801 L 25501,5801 Z"/>
        <path fill="none" stroke="rgb(0,0,0)" d="M 20900,1755 C 20900,1377 22050,1000 23200,1000 24350,1000 25501,1377 25501,1755 L 25501,5045 C 25501,5423 24350,5801 23200,5801 22050,5801 20900,5423 20900,5045 L 20900,1755 Z"/>
        <path fill="rgb(255,255,255)" stroke="none" d="M 20900,1755 C 20900,2133 22050,2511 23200,2511 24350,2511 25501,2133 25501,1755 L 20900,1755 Z M 20900,1000 L 20900,1000 Z M 25501,5801 L 25501,5801 Z"/>
        <path fill="none" stroke="rgb(0,0,0)" d="M 20900,1755 C 20900,2133 22050,2511 23200,2511 24350,2511 25501,2133 25501,1755"/>
        <path fill="none" stroke="rgb(0,0,0)" d="M 20900,1000 L 20900,1000 Z"/>
        <path fill="none" stroke="rgb(0,0,0)" d="M 25501,5801 L 25501,5801 Z"/>
       </g>
      </g>
      <g class="com.sun.star.drawing.TextShape">
       <g id="id9">
        <text class="TextShape"><tspan class="TextParagraph" font-family="Arial, sans-serif" font-size="635px" font-weight="400"><tspan class="TextPosition" x="21965" y="3317"><tspan fill="rgb(0,0,0)" stroke="none">Storage </tspan></tspan><tspan class="TextPosition" x="21271" y="4028"><tspan fill="rgb(0,0,0)" stroke="none">URI</tspan><tspan fill="rgb(0,0,0)" stroke="none">⁫→</tspan><tspan fill="rgb(0,0,0)" stroke="none">Triplets</tspan></tspan><tspan class="TextPosition" x="21177" y="4739"><tspan fill="rgb(0,0,0)" stroke="none">(kyotocabinet)</tspan></tspan></tspan></text>
       </g>
      </g>
     </g>
     <g class="com.sun.star.drawing.CustomShape">
      <g id="id10">
       <path fill="none" stroke="rgb(0,0,0)" d="M 12633,1500 C 12366,1500 12100,1766 12100,2033 L 12100,4167 C 12100,4434 12366,4701 12633,4701 L 17467,4701 C 17734,4701 18001,4434 18001,4167 L 18001,2033 C 18001,1766 17734,1500 17467,1500 L 12633,1500 Z"/>
       <text class="TextShape"><tspan class="TextParagraph" font-family="Arial, sans-serif" font-size="635px" font-weight="400"><tspan class="TextPosition" x="12584" y="2965"><tspan fill="rgb(0,0,0)" stroke="none">Search &amp; Retrival</tspan></tspan><tspan class="TextPosition" x="13799" y="3676"><tspan fill="rgb(0,0,0)" stroke="none"> frontend</tspan></tspan></tspan></text>
      </g>
     </g>
     <g class="com.sun.star.drawing.LineShape">
      <g id="id11">
       <path fill="none" stroke="rgb(0,0,0)" d="M 18635,4302 L 20226,6690"/>
       <path fill="rgb(0,0,0)" stroke="none" d="M 18868,4138 L 18338,3803 18319,3796 18301,3799 18289,3816 18287,3834 18394,4454 18395,4462 18398,4465 18407,4474 18419,4480 18431,4481 18443,4476 18869,4192 18878,4183 18884,4170 18881,4158 18876,4146 18874,4143 18868,4138 Z"/>
       <path fill="rgb(0,0,0)" stroke="none" d="M 20501,7100 L 20482,6465 19921,6839 20501,7100 Z"/>
      </g>
     </g>
     <g class="com.sun.star.drawing.LineShape">
      <g id="id12">
       <path fill="none" stroke="rgb(0,0,0)" d="M 18898,2778 L 20111,2936"/>
       <path fill="rgb(0,0,0)" stroke="none" d="M 18928,2494 L 18328,2673 18309,2683 18300,2699 18304,2719 18318,2732 18854,3059 18861,3063 18866,3064 18878,3062 18891,3057 18899,3049 18903,3037 18969,2529 18968,2517 18963,2504 18952,2497 18940,2494 18935,2493 18928,2494 Z"/>
       <path fill="rgb(0,0,0)" stroke="none" d="M 20600,2999 L 20110,2596 20023,3265 20600,2999 Z"/>
      </g>
     </g>
     <g class="com.sun.star.drawing.CustomShape">
      <g id="id13">
       <path fill="none" stroke="rgb(0,0,0)" d="M 3950,1500 C 3425,1500 2900,2025 2900,2550 L 2900,8550 C 2900,9075 3425,9600 3950,9600 L 8150,9600 C 8675,9600 9201,9075 9201,8550 L 9201,2550 C 9201,2025 8675,1500 8150,1500 L 3950,1500 Z"/>
       <text class="TextShape"><tspan class="TextParagraph" font-family="Arial, sans-serif" font-size="635px" font-weight="400"><tspan class="TextPosition" x="4507" y="4349"><tspan fill="rgb(0,0,0)" stroke="none">Web Client</tspan></tspan></tspan><tspan class="TextParagraph" font-family="Arial, sans-serif" font-size="635px" font-weight="400"><tspan class="TextPosition" x="4270" y="5771"><tspan fill="rgb(0,0,0)" stroke="none">RDF loader, </tspan></tspan><tspan class="TextPosition" x="4113" y="6482"><tspan fill="rgb(0,0,0)" stroke="none">interpretation,</tspan></tspan></tspan><tspan class="TextParagraph" font-family="Arial, sans-serif" font-size="635px" font-weight="400"><tspan class="TextPosition" x="5119" y="7193"><tspan fill="rgb(0,0,0)" stroke="none">edition</tspan></tspan></tspan></text>
      </g>
     </g>
     <g class="com.sun.star.drawing.LineShape">
      <g id="id14">
       <path fill="none" stroke="rgb(0,0,0)" d="M 10003,3100 L 11407,3100"/>
       <path fill="rgb(0,0,0)" stroke="none" d="M 9996,2815 L 9424,3070 9407,3082 9400,3099 9407,3118 9422,3130 9996,3385 10003,3388 10008,3388 10020,3385 10032,3378 10039,3368 10041,3356 10041,2844 10039,2832 10032,2820 10020,2815 10008,2813 10003,2813 9996,2815 Z"/>
       <path fill="rgb(0,0,0)" stroke="none" d="M 11900,3099 L 11362,2763 11362,3438 11900,3099 Z"/>
      </g>
     </g>
     <g class="com.sun.star.drawing.LineShape">
      <g id="id15">
       <path fill="none" stroke="rgb(0,0,0)" d="M 9903,8000 L 11307,8000"/>
       <path fill="rgb(0,0,0)" stroke="none" d="M 9896,7715 L 9324,7970 9307,7982 9300,7999 9307,8018 9322,8030 9896,8285 9903,8288 9908,8288 9920,8285 9932,8278 9939,8268 9941,8256 9941,7744 9939,7732 9932,7720 9920,7715 9908,7713 9903,7713 9896,7715 Z"/>
       <path fill="rgb(0,0,0)" stroke="none" d="M 11800,7999 L 11262,7663 11262,8338 11800,7999 Z"/>
      </g>
     </g>
     <g class="com.sun.star.drawing.TextShape">
      <g id="id16">
       <text class="TextShape"><tspan class="TextParagraph" font-family="Arial, sans-serif" font-size="635px" font-weight="400"><tspan class="TextPosition" x="9816" y="1101"><tspan fill="rgb(0,0,0)" stroke="none">AJAX</tspan></tspan><tspan class="TextPosition" x="9466" y="1812"><tspan fill="rgb(0,0,0)" stroke="none">(jQuery)</tspan></tspan></tspan></text>
      </g>
     </g>
     <g class="com.sun.star.drawing.CustomShape">
      <g id="id17">
       <path fill="none" stroke="rgb(0,0,0)" d="M 10544,2400 L 10483,2400 C 10441,2400 10400,2441 10400,2483 L 10400,2551"/>
       <path fill="none" stroke="rgb(0,0,0)" d="M 10400,2748 L 10400,2945"/>
       <path fill="none" stroke="rgb(0,0,0)" d="M 10400,3142 L 10400,3339"/>
       <path fill="none" stroke="rgb(0,0,0)" d="M 10400,3536 L 10400,3733"/>
       <path fill="none" stroke="rgb(0,0,0)" d="M 10400,3930 L 10400,4127"/>
       <path fill="none" stroke="rgb(0,0,0)" d="M 10400,4324 L 10400,4521"/>
       <path fill="none" stroke="rgb(0,0,0)" d="M 10400,4718 L 10400,4915"/>
       <path fill="none" stroke="rgb(0,0,0)" d="M 10400,5112 L 10400,5309"/>
       <path fill="none" stroke="rgb(0,0,0)" d="M 10400,5506 L 10400,5703"/>
       <path fill="none" stroke="rgb(0,0,0)" d="M 10400,5900 L 10400,6097"/>
       <path fill="none" stroke="rgb(0,0,0)" d="M 10400,6294 L 10400,6491"/>
       <path fill="none" stroke="rgb(0,0,0)" d="M 10400,6688 L 10400,6885"/>
       <path fill="none" stroke="rgb(0,0,0)" d="M 10400,7082 L 10400,7279"/>
       <path fill="none" stroke="rgb(0,0,0)" d="M 10400,7476 L 10400,7673"/>
       <path fill="none" stroke="rgb(0,0,0)" d="M 10400,7870 L 10400,8067"/>
       <path fill="none" stroke="rgb(0,0,0)" d="M 10400,8264 L 10400,8461"/>
       <path fill="none" stroke="rgb(0,0,0)" d="M 10400,8658 L 10400,8817 C 10400,8830 10404,8842 10410,8854"/>
       <path fill="none" stroke="rgb(0,0,0)" d="M 10590,8900 L 10787,8900"/>
       <path fill="none" stroke="rgb(0,0,0)" d="M 10901,8779 L 10901,8582"/>
       <path fill="none" stroke="rgb(0,0,0)" d="M 10901,8385 L 10901,8188"/>
       <path fill="none" stroke="rgb(0,0,0)" d="M 10901,7991 L 10901,7794"/>
       <path fill="none" stroke="rgb(0,0,0)" d="M 10901,7597 L 10901,7400"/>
       <path fill="none" stroke="rgb(0,0,0)" d="M 10901,7203 L 10901,7006"/>
       <path fill="none" stroke="rgb(0,0,0)" d="M 10901,6809 L 10901,6612"/>
       <path fill="none" stroke="rgb(0,0,0)" d="M 10901,6415 L 10901,6218"/>
       <path fill="none" stroke="rgb(0,0,0)" d="M 10901,6021 L 10901,5824"/>
       <path fill="none" stroke="rgb(0,0,0)" d="M 10901,5627 L 10901,5430"/>
       <path fill="none" stroke="rgb(0,0,0)" d="M 10901,5233 L 10901,5036"/>
       <path fill="none" stroke="rgb(0,0,0)" d="M 10901,4839 L 10901,4642"/>
       <path fill="none" stroke="rgb(0,0,0)" d="M 10901,4445 L 10901,4248"/>
       <path fill="none" stroke="rgb(0,0,0)" d="M 10901,4051 L 10901,3854"/>
       <path fill="none" stroke="rgb(0,0,0)" d="M 10901,3657 L 10901,3460"/>
       <path fill="none" stroke="rgb(0,0,0)" d="M 10901,3263 L 10901,3066"/>
       <path fill="none" stroke="rgb(0,0,0)" d="M 10901,2869 L 10901,2672"/>
       <path fill="none" stroke="rgb(0,0,0)" d="M 10901,2475 C 10896,2436 10856,2400 10817,2400 L 10741,2400"/>
      </g>
     </g>
     <g class="com.sun.star.drawing.TextShape">
      <g id="id18">
       <text class="TextShape"><tspan class="TextParagraph" font-family="Arial, sans-serif" font-size="635px" font-weight="400"><tspan class="TextPosition" x="12849" y="5738"><tspan fill="rgb(0,0,0)" stroke="none">Python+RESTful</tspan></tspan></tspan></text>
      </g>
     </g>
     <g class="com.sun.star.drawing.CustomShape">
      <g id="id19">
       <path fill="none" stroke="rgb(0,0,0)" d="M 3933,13100 C 3416,13100 2900,13616 2900,14133 L 2900,18267 C 2900,18784 3416,19301 3933,19301 L 8167,19301 C 8684,19301 9201,18784 9201,18267 L 9201,14133 C 9201,13616 8684,13100 8167,13100 L 3933,13100 Z"/>
       <text class="TextShape"><tspan class="TextParagraph" font-family="Arial, sans-serif" font-size="635px" font-weight="400"><tspan class="TextPosition" x="4382" y="15354"><tspan fill="rgb(0,0,0)" stroke="none">Web Server</tspan></tspan></tspan><tspan class="TextParagraph" font-family="Arial, sans-serif" font-size="635px" font-weight="400"><tspan class="TextPosition" x="4147" y="16776"><tspan fill="rgb(0,0,0)" stroke="none">(static pages)</tspan></tspan></tspan><tspan class="TextParagraph" font-family="Arial, sans-serif" font-size="635px" font-weight="400"><tspan class="TextPosition" x="4213" y="17487"><tspan fill="rgb(0,0,0)" stroke="none">CSS, .js, </tspan><tspan font-style="italic" fill="rgb(0,0,0)" stroke="none">etc</tspan><tspan fill="rgb(0,0,0)" stroke="none">.</tspan></tspan></tspan></text>
      </g>
     </g>
     <g class="com.sun.star.drawing.LineShape">
      <g id="id20">
       <path fill="none" stroke="rgb(0,0,0)" d="M 6200,10603 L 6200,12207"/>
       <path fill="rgb(0,0,0)" stroke="none" d="M 6485,10596 L 6230,10024 6218,10007 6201,10000 6182,10007 6170,10022 5915,10596 5913,10603 5913,10608 5915,10620 5922,10632 5932,10639 5944,10641 6456,10641 6468,10639 6480,10632 6485,10620 6488,10608 6488,10603 6485,10596 Z"/>
       <path fill="rgb(0,0,0)" stroke="none" d="M 6201,12700 L 6538,12162 5863,12162 6201,12700 Z"/>
      </g>
     </g>
     <g class="com.sun.star.drawing.TextShape">
      <g id="id21">
       <text class="TextShape"><tspan class="TextParagraph" font-family="Arial, sans-serif" font-size="635px" font-weight="400"><tspan class="TextPosition" x="4080" y="11539"><tspan fill="rgb(0,0,0)" stroke="none">HTTP</tspan></tspan></tspan></text>
      </g>
     </g>
    </g>
   </g>
  </g>
 </g>
</svg>